<svg xmlns="http://www.w3.org/2000/svg" width="40" height="40" viewBox="0 0 34 34" fill="none">
  <rect width="34" height="34" rx="6" fill="#0A66C2"/>
  <path fill="#fff" d="M10.335 14.463h-2.81v7.666h2.81v-7.666zm-1.402-3.923c-.9 0-1.45.62-1.45 1.438 0 .815.547 1.438 1.427 1.438h.017c.905 0 1.45-.623 1.45-1.438-.017-.82-.536-1.438-1.444-1.438zm8.328 3.862c-1.459 0-2.012.8-2.358 1.364v-.487h-2.815v7.667h2.81v-4.388c0-.234.017-.46.085-.624.178-.464.582-.945 1.261-.945.89 0 1.247.713 1.247 1.758v4.199h2.814v-4.51c0-2.423-1.294-3.561-3.344-3.561z"/>
</svg>
